<svg width="114" height="114" viewBox="0 0 114 114" fill="none" xmlns="http://www.w3.org/2000/svg">
<g clip-path="url(#clip0)">
<path d="M39.0849 77.6792L49.2375 69.5749C49.9272 69.0243 50.2264 68.1189 50.0011 67.2665C49.7759 66.4133 49.0679 65.774 48.1964 65.6358L39.0588 64.1902L56.212 46.7874C57.0748 45.9124 57.0644 44.5025 56.1885 43.6389C55.3127 42.7761 53.9037 42.7857 53.0401 43.6615L35.1023 61.861L33.4246 50.7613C33.2924 49.8889 32.6583 49.1775 31.8068 48.9461C30.9545 48.7147 30.0473 49.0079 29.4924 49.6932L21.3185 59.7902L12.434 56.3068L31.8616 37.341C32.7418 36.4826 32.7583 35.0727 31.899 34.1925C31.0406 33.3132 29.6307 33.2958 28.7505 34.1551L6.85627 55.5284C6.22048 56.1459 6.01522 57.1218 6.34225 57.9445L10.9902 70.0471L0.837593 78.1506C0.14788 78.7011 -0.151314 79.6066 0.0739514 80.4598C0.299217 81.3121 1.00719 81.9514 1.87868 82.0897L14.7093 84.1197L16.6505 96.9642C16.7714 97.7617 17.3316 98.4471 18.0891 98.7228C18.9736 99.0455 19.9912 98.7628 20.5827 98.0322L28.7566 87.9353L40.8505 92.6763C41.6715 92.9981 42.6056 92.805 43.2319 92.1832C43.8581 91.5613 44.0581 90.6289 43.7415 89.8053L39.0849 77.6792ZM28.8636 83.1952C27.9599 82.8412 26.9319 83.1125 26.3204 83.8675L20.2991 91.3056L18.8684 81.8427C18.724 80.8834 17.9734 80.1284 17.015 79.9762L7.56251 78.4802L15.0424 72.5103C15.8008 71.9049 16.08 70.8777 15.7312 69.9723L12.3 61.0374L21.2106 64.5303C22.1143 64.8852 23.1432 64.6129 23.7538 63.858L29.776 56.4199L31.1971 65.8228L28.7679 68.2868C27.9051 69.1626 27.9156 70.5725 28.7905 71.4353C29.2245 71.8632 29.789 72.0763 30.3535 72.0763C30.9292 72.0763 31.5041 71.8545 31.9399 71.4126L35.2145 68.0902L42.5126 69.2452L35.0327 75.2152C34.2743 75.8214 33.9951 76.8477 34.343 77.754L37.7742 86.6881L28.8636 83.1952Z" fill="#E9E9E9"/>
<path d="M36.7826 31.6528C37.3436 31.6528 37.9046 31.4415 38.3377 31.0188L57.0861 12.7166C57.9663 11.8582 57.9837 10.4483 57.1244 9.56813C56.2651 8.68795 54.8552 8.67142 53.9759 9.52986L35.2266 27.8329C34.3473 28.6913 34.3299 30.1012 35.1892 30.9814C35.625 31.4284 36.2034 31.6528 36.7826 31.6528Z" fill="#E9E9E9"/>
<path d="M38.4883 45.301C38.9231 45.7358 39.4928 45.9533 40.0625 45.9533C40.6322 45.9533 41.2027 45.7358 41.6367 45.301L62.6056 24.333C63.4745 23.4633 63.4745 22.0534 62.6056 21.1836C61.7358 20.3148 60.326 20.3148 59.4562 21.1836L38.4883 42.1525C37.6185 43.0222 37.6185 44.4321 38.4883 45.301Z" fill="#E9E9E9"/>
<path d="M66.8109 19.205C67.3927 19.205 67.9728 18.9788 68.4095 18.5283L82.7108 3.77645C83.5666 2.89365 83.5448 1.48378 82.662 0.627948C81.7792 -0.227886 80.3694 -0.205273 79.5136 0.676654L65.2123 15.4285C64.3564 16.3113 64.3782 17.7212 65.261 18.577C65.6941 18.9962 66.2525 19.205 66.8109 19.205Z" fill="#E9E9E9"/>
<path d="M78.3724 53.2975C77.4966 52.4347 76.0867 52.446 75.224 53.3227L49.4167 79.5492C48.5548 80.4259 48.5661 81.8349 49.4428 82.6977C49.876 83.1247 50.4404 83.3369 51.004 83.3369C51.5798 83.3369 52.1556 83.1152 52.5913 82.6725L78.3977 56.446C79.2605 55.5693 79.2492 54.1594 78.3724 53.2975Z" fill="#E9E9E9"/>
<path d="M63.9884 54.6561C64.5685 54.6561 65.1486 54.4308 65.5852 53.982L99.8317 18.7623C100.689 17.8812 100.669 16.4714 99.7873 15.6138C98.9054 14.7562 97.4964 14.7771 96.6388 15.6582L62.3924 50.8779C61.5348 51.7598 61.5548 53.1688 62.4367 54.0264C62.869 54.4473 63.4291 54.6561 63.9884 54.6561Z" fill="#E9E9E9"/>
<path d="M56.5938 56.6617L52.8956 60.4642C52.038 61.3461 52.058 62.756 52.94 63.6127C53.3722 64.0337 53.9324 64.2433 54.4916 64.2433C55.0717 64.2433 55.6519 64.018 56.0885 63.5692L59.7858 59.7667C60.6434 58.8848 60.6233 57.4749 59.7423 56.6182C58.8604 55.7606 57.4505 55.7797 56.5938 56.6617Z" fill="#E9E9E9"/>
<path d="M101.536 11.9843C101.89 12.8324 102.758 13.3977 103.68 13.3585C104.618 13.3194 105.449 12.6775 105.722 11.78C105.983 10.9172 105.687 9.94825 104.977 9.38987C104.246 8.8141 103.211 8.74974 102.418 9.24289C101.506 9.80996 101.121 10.9902 101.536 11.9843Z" fill="#E9E9E9"/>
<path d="M63.1848 40.506L80.318 23.1919C81.1826 22.3178 81.1756 20.9079 80.3015 20.0434C79.4274 19.1788 78.0175 19.1858 77.1521 20.0599L60.0189 37.3732C59.1544 38.2473 59.1614 39.6571 60.0355 40.5226C60.4695 40.9513 61.0357 41.1662 61.6019 41.1662C62.175 41.1662 62.7491 40.9452 63.1848 40.506Z" fill="#E9E9E9"/>
<path d="M103.942 24.1381L95.8971 32.3138C95.0343 33.1905 95.0465 34.5995 95.9223 35.4623C96.3563 35.8893 96.9199 36.1016 97.4844 36.1016C98.0602 36.1016 98.6359 35.8798 99.0717 35.4371L107.116 27.2614C107.979 26.3847 107.967 24.9748 107.091 24.1129C106.214 23.2501 104.804 23.2614 103.942 24.1381Z" fill="#E9E9E9"/>
<path d="M83.2535 50.5638C83.8292 50.5638 84.405 50.3412 84.8408 49.8985L93.1591 41.4453C94.021 40.5686 94.0097 39.1588 93.1338 38.2968C92.2571 37.4341 90.8473 37.4454 89.9845 38.3221L81.6662 46.7752C80.8043 47.6519 80.8156 49.0618 81.6923 49.9237C82.1254 50.3507 82.6899 50.5638 83.2535 50.5638Z" fill="#E9E9E9"/>
<path d="M74.7394 79.7927C75.1743 80.2276 75.7449 80.445 76.3146 80.445C76.8842 80.445 77.4539 80.2284 77.8888 79.7936L95.7961 61.9002C96.6659 61.0313 96.6667 59.6214 95.7978 58.7517C94.9281 57.8819 93.5182 57.8811 92.6485 58.7499L74.7412 76.6433C73.8714 77.5131 73.8706 78.9229 74.7394 79.7927Z" fill="#E9E9E9"/>
<path d="M103.955 47.4536L99.7639 51.6406C98.8941 52.5103 98.8941 53.9193 99.763 54.79C100.198 55.2248 100.768 55.4423 101.338 55.4423C101.908 55.4423 102.477 55.2257 102.911 54.7908L107.103 50.6038C107.973 49.7341 107.973 48.3251 107.104 47.4545C106.235 46.5847 104.825 46.5839 103.955 47.4536Z" fill="#E9E9E9"/>
<path d="M98.274 82.4219C98.8628 82.4219 99.4516 82.1897 99.8891 81.7279L113.389 67.5057C114.235 66.6134 114.198 65.2044 113.307 64.3581C112.414 63.511 111.005 63.5484 110.159 64.4398L96.6589 78.6629C95.8126 79.5544 95.8491 80.9642 96.7415 81.8105C97.172 82.2193 97.7234 82.4219 98.274 82.4219Z" fill="#E9E9E9"/>
<path d="M105.661 93.7122L96.0005 103.391L94.0871 98.3062L101.071 92.8077C101.764 92.2615 102.07 91.3578 101.85 90.5037C101.63 89.6487 100.927 89.0051 100.056 88.8607L91.2856 87.4135L90.0166 78.6151C89.8914 77.7418 89.2608 77.0252 88.4111 76.7877C87.5613 76.5511 86.6516 76.8382 86.0923 77.52L80.452 84.3919L72.1972 81.093C71.3779 80.766 70.4429 80.9529 69.8123 81.5696C69.1826 82.1871 68.9765 83.1186 69.287 83.9449L72.4181 92.2641L65.434 97.7635C64.7408 98.3088 64.4346 99.2125 64.6547 100.067C64.8739 100.922 65.5775 101.566 66.4481 101.71L75.2196 103.158L76.4894 111.956C76.6155 112.829 77.2452 113.546 78.095 113.783C78.2924 113.837 78.4933 113.864 78.6925 113.864C79.3491 113.864 79.9849 113.574 80.4137 113.05L86.0532 106.178L94.308 109.478C95.1256 109.804 96.0884 109.604 96.7102 108.982L108.812 96.8581C109.681 95.9883 109.68 94.5785 108.809 93.7096C107.94 92.8407 106.53 92.8416 105.661 93.7122ZM86.1923 101.438C85.2913 101.078 84.2606 101.343 83.6448 102.093L80.1754 106.321L79.3935 100.908C79.2552 99.9474 78.5107 99.1873 77.5531 99.029L72.1563 98.1384L76.4537 94.755C77.2165 94.1549 77.5027 93.1295 77.1608 92.2206L75.2335 87.1021L80.3128 89.1321C81.2148 89.4913 82.2445 89.2269 82.8603 88.4772L86.3306 84.2493L87.1117 89.6626C87.25 90.6228 87.9953 91.383 88.9529 91.5413L94.3489 92.4319L90.0514 95.8153C89.2895 96.4163 89.0034 97.4408 89.3452 98.3497L91.2717 103.468L86.1923 101.438Z" fill="#E9E9E9"/>
<path d="M113.34 78.6133C112.466 77.7479 111.057 77.7549 110.191 78.629L104.973 83.9005C104.108 84.7746 104.115 86.1845 104.989 87.0499C105.423 87.4796 105.99 87.6935 106.556 87.6935C107.129 87.6935 107.702 87.4735 108.138 87.0334L113.356 81.7618C114.221 80.8877 114.214 79.4779 113.34 78.6133Z" fill="#E9E9E9"/>
<path d="M98.9542 67.7658C99.3856 68.1781 99.9388 68.3824 100.491 68.3824C101.078 68.3824 101.664 68.1511 102.102 67.6927L113.181 56.085C114.03 55.1953 113.997 53.7863 113.107 52.9374C112.217 52.0885 110.808 52.1216 109.959 53.0105L98.8803 64.6182C98.0314 65.5079 98.0645 66.9169 98.9542 67.7658Z" fill="#E9E9E9"/>
<path d="M92.986 74.5907C93.7757 75.1091 94.8246 75.0839 95.5778 74.5064C96.3284 73.9306 96.6311 72.9199 96.3301 72.025C96.0423 71.1683 95.2325 70.5673 94.3332 70.5177C93.4061 70.4672 92.5206 71.0317 92.1667 71.8884C91.7657 72.8564 92.1127 74.0097 92.986 74.5907Z" fill="#E9E9E9"/>
<path d="M85.9818 16.6844C86.5359 16.6844 87.0916 16.4783 87.5239 16.0634L100.259 3.83212C101.146 2.98063 101.174 1.57163 100.322 0.684488C99.4708 -0.202658 98.0609 -0.23049 97.1738 0.620996L84.4389 12.8523C83.5517 13.7038 83.5239 15.1137 84.3754 16.0008C84.8129 16.4557 85.3965 16.6844 85.9818 16.6844Z" fill="#E9E9E9"/>
</g>
<defs>
<clipPath id="clip0">
<rect width="114" height="114" fill="white"/>
</clipPath>
</defs>
</svg>
